HIERARCHY
ROOT Hips
{
	OFFSET 0.00000 0.00000 0.00000
	CHANNELS 6 Xposition Yposition Zposition Zrotation Yrotation Xrotation 
	JOINT LHipJoint
	{
		OFFSET 0 0 0
		CHANNELS 3 Zrotation Yrotation Xrotation
		JOINT LeftUpLeg
		{
			OFFSET 1.80322 -1.53100 0.99595
			CHANNELS 3 Zrotation Yrotation Xrotation
			JOINT LeftLeg
			{
				OFFSET 2.25177 -6.18669 0.00000
				CHANNELS 3 Zrotation Yrotation Xrotation
				JOINT LeftFoot
				{
					OFFSET 2.26601 -6.22582 0.00000
					CHANNELS 3 Zrotation Yrotation Xrotation
					JOINT LeftToeBase
					{
						OFFSET 0.23701 -0.65119 2.15848
						CHANNELS 3 Zrotation Yrotation Xrotation
						End Site
						{
							OFFSET 0.00000 -0.00000 1.12949
						}
					}
				}
			}
		}
	}
	JOINT RHipJoint
	{
		OFFSET 0 0 0
		CHANNELS 3 Zrotation Yrotation Xrotation
		JOINT RightUpLeg
		{
			OFFSET -1.93977 -1.53100 0.99595
			CHANNELS 3 Zrotation Yrotation Xrotation
			JOINT RightLeg
			{
				OFFSET -2.28036 -6.26523 0.00000
				CHANNELS 3 Zrotation Yrotation Xrotation
				JOINT RightFoot
				{
					OFFSET -2.25490 -6.19528 0.00000
					CHANNELS 3 Zrotation Yrotation Xrotation
					JOINT RightToeBase
					{
						OFFSET -0.28375 -0.77960 2.23137
						CHANNELS 3 Zrotation Yrotation Xrotation
						End Site
						{
							OFFSET -0.00000 -0.00000 1.17899
						}
					}
				}
			}
		}
	}
	JOINT LowerBack
	{
		OFFSET 0 0 0
		CHANNELS 3 Zrotation Yrotation Xrotation
		JOINT Spine
		{
			OFFSET -0.00088 2.12090 -0.02806
			CHANNELS 3 Zrotation Yrotation Xrotation
			JOINT Spine1
			{
				OFFSET -0.00286 2.09666 0.12974
				CHANNELS 3 Zrotation Yrotation Xrotation
				JOINT Neck
				{
					OFFSET 0 0 0
					CHANNELS 3 Zrotation Yrotation Xrotation
					JOINT Neck1
					{
						OFFSET 0.07328 1.83526 0.07290
						CHANNELS 3 Zrotation Yrotation Xrotation
						JOINT Head
						{
							OFFSET -0.06683 1.74974 -0.49542
							CHANNELS 3 Zrotation Yrotation Xrotation
							End Site
							{
								OFFSET -0.03398 1.85163 -0.17573
							}
						}
					}
				}
				JOINT LeftShoulder
				{
					OFFSET 0 0 0
					CHANNELS 3 Zrotation Yrotation Xrotation
					JOINT LeftArm
					{
						OFFSET 3.02113 1.18018 0.40602
						CHANNELS 3 Zrotation Yrotation Xrotation
						JOINT LeftForeArm
						{
							OFFSET 4.58538 -0.00000 -0.00000
							CHANNELS 3 Zrotation Yrotation Xrotation
							JOINT LeftHand
							{
								OFFSET 2.68935 -0.00000 -0.00000
								CHANNELS 3 Zrotation Yrotation Xrotation
								JOINT LeftFingerBase
								{
									OFFSET 0 0 0
									CHANNELS 3 Zrotation Yrotation Xrotation
									JOINT LeftHandIndex1
									{
										OFFSET 0.58506 -0.00000 -0.00000
										CHANNELS 3 Zrotation Yrotation Xrotation
										End Site
										{
											OFFSET 0.47169 -0.00000 -0.00000
										}
									}
								}
								JOINT LThumb
								{
									OFFSET 0 0 0
									CHANNELS 3 Zrotation Yrotation Xrotation
									End Site
									{
										OFFSET 0.47889 -0.00000 0.47889
									}
								}
							}
						}
					}
				}
				JOINT RightShoulder
				{
					OFFSET 0 0 0
					CHANNELS 3 Zrotation Yrotation Xrotation
					JOINT RightArm
					{
						OFFSET -2.95074 1.18843 0.31430
						CHANNELS 3 Zrotation Yrotation Xrotation
						JOINT RightForeArm
						{
							OFFSET -4.47450 -0.00000 -0.00000
							CHANNELS 3 Zrotation Yrotation Xrotation
							JOINT RightHand
							{
								OFFSET -2.93896 -0.00000 -0.00000
								CHANNELS 3 Zrotation Yrotation Xrotation
								JOINT RightFingerBase
								{
									OFFSET 0 0 0
									CHANNELS 3 Zrotation Yrotation Xrotation
									JOINT RightHandIndex1
									{
										OFFSET -0.40509 -0.00000 -0.00000
										CHANNELS 3 Zrotation Yrotation Xrotation
										End Site
										{
											OFFSET -0.32660 -0.00000 -0.00000
										}
									}
								}
								JOINT RThumb
								{
									OFFSET 0 0 0
									CHANNELS 3 Zrotation Yrotation Xrotation
									End Site
									{
										OFFSET -0.33158 -0.00000 0.33158
									}
								}
							}
						}
					}
				}
			}
		}
	}
}
MOTION
Frames: 8
Frame Time: .0083333
0.5128 15.5655 8.0521 -0.0406 9.0608 19.0633 0.0000 0.0000 0.0000 -8.6367 -13.2289 -10.3289 0.6396 5.1166 14.2415 0.4007 10.7618 -20.2728 0.6477 -5.1482 -14.3317 0.0000 0.0000 0.0000 -5.5585 16.2074 -35.9384 -1.5939 -7.9632 22.6025 2.4377 -27.4063 -2.4499 -0.0068 0.5329 -1.4642 1.0469 0.1949 3.8849 0.7621 0.3866 -4.3528 0.1703 0.1626 -6.7104 8.4249 1.1597 -12.9978 -4.2395 0.6050 14.5913 -2.6910 0.4017 6.6263 0.0000 0.0000 0.0000 -73.3531 -11.3899 64.4894 96.3031 -59.8493 -65.4559 -0.0000 0.0000 -1.4198 11.9848 10.6215 2.2407 -7.1250 0.0000 -0.0000 -13.2481 40.4755 1.5081 0.0000 0.0000 0.0000 71.4135 2.6158 50.0517 -46.6829 51.5668 -23.5498 0.0000 -0.0000 -13.9121 -8.9131 -10.3011 1.6064 7.1250 -0.0000 -0.0000 15.7895 -39.9034 2.0425
0.6200 15.5850 7.9960 -0.0534 8.5835 18.9392 0.0000 0.0000 0.0000 -9.2065 -13.1215 -10.3453 0.6533 5.1700 14.3940 0.3989 10.8712 -20.3715 0.6052 -4.9794 -13.8500 0.0000 0.0000 0.0000 -6.0757 17.2108 -35.1163 -1.4799 -7.6865 21.7658 2.6502 -28.2395 -3.4336 -0.0008 0.1853 -0.5091 0.8963 0.2041 3.6345 0.7867 0.3869 -4.4203 0.2813 0.1710 -6.6383 8.5852 1.2554 -12.8598 -4.2737 0.7253 14.9166 -2.7205 0.4725 6.7162 0.0000 0.0000 0.0000 -73.2098 -10.5761 64.1642 93.0528 -59.9648 -62.6435 -0.0000 0.0000 -0.6456 11.7502 10.4829 2.1673 -7.1250 0.0000 -0.0000 -13.4169 40.3182 1.5812 0.0000 0.0000 0.0000 71.6702 1.6369 49.7770 -46.8314 51.6348 -23.6662 0.0000 -0.0000 -13.0894 -8.5300 -10.0602 1.5008 7.1250 -0.0000 -0.0000 16.0520 -39.6383 2.1867
0.7212 15.6017 7.9412 -0.0563 8.1700 18.7933 0.0000 0.0000 0.0000 -9.7469 -13.0686 -10.3967 0.6759 5.2569 14.6428 0.4015 10.9720 -20.5069 0.5628 -4.8052 -13.3538 0.0000 0.0000 0.0000 -6.3862 17.9698 -34.3706 -1.4064 -7.5012 21.2090 2.7441 -28.4559 -4.5168 -0.0000 0.0234 -0.0642 0.7455 0.2001 3.4211 0.8092 0.3704 -4.4816 0.3914 0.1709 -6.5811 8.7219 1.3392 -12.7306 -4.2824 0.8294 15.2370 -2.7393 0.5363 6.8051 0.0000 0.0000 0.0000 -73.0656 -9.7833 63.9094 89.8134 -59.9999 -59.8384 -0.0000 0.0000 -0.1255 11.5312 10.4712 2.1235 -7.1250 0.0000 -0.0000 -13.6017 40.2882 1.6142 0.0000 0.0000 0.0000 71.9579 0.6562 49.4788 -46.9202 51.6752 -23.7358 0.0000 -0.0000 -12.2486 -8.1952 -9.8015 1.4044 7.1250 -0.0000 -0.0000 16.2684 -39.3609 2.3329
0.8169 15.6164 7.8873 -0.0632 7.8229 18.6348 0.0000 0.0000 0.0000 -10.2398 -13.0810 -10.4791 0.7054 5.3682 14.9616 0.4059 11.0744 -20.6624 0.5214 -4.6279 -12.8502 0.0000 0.0000 0.0000 -6.4420 18.4106 -33.7268 -1.3692 -7.4054 20.9222 2.6967 -28.0440 -5.4695 -0.0000 0.0449 -0.1233 0.6077 0.1797 3.2312 0.8373 0.3339 -4.5358 0.5017 0.1605 -6.5297 8.8420 1.4176 -12.6247 -4.2817 0.9259 15.5589 -2.7532 0.5964 6.8983 -0.0000 -0.0000 0.0000 -72.9289 -9.0140 63.7070 86.6311 -59.9571 -57.0829 -0.0000 -0.0000 0.0698 11.3288 10.5508 2.1009 -7.1250 0.0000 -0.0000 -13.7938 40.3496 1.6167 -0.0000 -0.0000 0.0000 72.2710 -0.3198 49.1646 -46.9468 51.6873 -23.7567 0.0000 -0.0000 -11.4274 -7.9351 -9.5105 1.3193 7.1250 -0.0000 -0.0000 16.4132 -39.0591 2.4812
0.9076 15.6293 7.8347 -0.0940 7.5273 18.4266 0.0000 0.0000 0.0000 -10.6797 -13.1327 -10.5355 0.7405 5.4972 15.3324 0.4112 11.1855 -20.8365 0.4843 -4.4623 -12.3810 0.0000 0.0000 0.0000 -6.1997 18.5190 -33.1364 -1.3626 -7.3883 20.8709 2.5231 -27.0687 -6.2047 -0.0008 0.1870 -0.5139 0.5021 0.1476 3.0970 0.8756 0.2851 -4.5728 0.6054 0.1426 -6.4919 8.9417 1.4907 -12.5293 -4.2716 1.0165 15.8751 -2.7610 0.6533 6.9912 -0.0000 0.0000 0.0000 -72.8071 -8.2550 63.5462 83.5168 -59.8406 -54.3884 -0.0000 0.0000 -0.0380 11.1852 10.6608 2.0950 -7.1250 0.0000 -0.0000 -13.9432 40.4460 1.6011 -0.0000 0.0000 0.0000 72.6076 -1.2902 48.8371 -46.9105 51.6708 -23.7282 0.0000 -0.0000 -10.6781 -7.7418 -9.2067 1.2461 7.1250 -0.0000 -0.0000 16.4991 -38.7508 2.6246
0.9941 15.6405 7.7834 -0.1615 7.2418 18.1789 0.0000 0.0000 0.0000 -11.0640 -13.2027 -10.5646 0.7801 5.6390 15.7405 0.4158 11.3232 -21.0310 0.4501 -4.3044 -11.9347 0.0000 0.0000 0.0000 -5.6737 18.3264 -32.6150 -1.3817 -7.4379 21.0193 2.2625 -25.6541 -6.7046 -0.0039 0.4033 -1.1080 0.4281 0.1140 3.0036 0.9261 0.2374 -4.5940 0.7037 0.1239 -6.4607 9.0351 1.5661 -12.4534 -4.2670 1.1111 16.1935 -2.7694 0.7111 7.0887 -0.0000 -0.0000 0.0000 -72.7032 -7.5036 63.4050 80.4600 -59.6533 -51.7477 -0.0000 0.0000 -0.3738 11.0942 10.7758 2.0996 -7.1250 0.0000 -0.0000 -14.0491 40.5516 1.5764 -0.0000 -0.0000 0.0000 72.9642 -2.2482 48.5072 -46.8066 51.6235 -23.6467 0.0000 -0.0000 -10.0352 -7.5969 -8.9141 1.1839 7.1250 -0.0000 -0.0000 16.5476 -38.4575 2.7564
1.0769 15.6500 7.7334 -0.2670 6.9444 17.8910 0.0000 0.0000 0.0000 -11.4009 -13.2704 -10.5536 0.8229 5.7878 16.1699 0.4197 11.4896 -21.2502 0.4183 -4.1513 -11.5028 0.0000 0.0000 0.0000 -4.8938 17.8680 -32.1534 -1.4230 -7.5435 21.3359 1.9541 -23.9048 -7.0597 -0.0098 0.6392 -1.7565 0.3884 0.0860 2.9478 0.9848 0.2000 -4.5960 0.7904 0.1089 -6.4306 9.1279 1.6441 -12.3936 -4.2732 1.2095 16.5075 -2.7807 0.7698 7.1883 0.0000 -0.0000 0.0000 -72.6237 -6.7598 63.2610 77.4364 -59.3951 -49.1417 -0.0000 0.0000 -0.8247 11.0353 10.8743 2.1070 -7.1250 0.0000 -0.0000 -14.1237 40.6434 1.5524 0.0000 -0.0000 0.0000 73.3509 -3.1924 48.1533 -46.6429 51.5484 -23.5185 0.0000 -0.0000 -9.5084 -7.4652 -8.6626 1.1306 7.1250 -0.0000 -0.0000 16.5955 -38.2051 2.8716
1.1562 15.6577 7.6838 -0.3982 6.6241 17.5749 0.0000 0.0000 0.0000 -11.7029 -13.3387 -10.5106 0.8684 5.9418 16.6156 0.4230 11.6863 -21.4968 0.3872 -3.9958 -11.0650 0.0000 0.0000 0.0000 -3.9145 17.1821 -31.7556 -1.4843 -7.6974 21.7987 1.6328 -21.9339 -7.4039 -0.0177 0.8581 -2.3585 0.3732 0.0676 2.8867 1.0458 0.1765 -4.5641 0.8643 0.0995 -6.3616 9.2145 1.7231 -12.3257 -4.2819 1.3117 16.7865 -2.7910 0.8291 7.2757 0.0000 -0.0000 0.0000 -72.5691 -6.0425 63.0997 74.4308 -59.0640 -46.5590 -0.0000 0.0000 -1.2691 11.0003 10.9541 2.1154 -7.1250 0.0000 -0.0000 -14.1735 40.7189 1.5311 0.0000 -0.0000 0.0000 73.7724 -4.0948 47.7540 -46.4158 51.4435 -23.3407 0.0000 -0.0000 -9.1101 -7.3158 -8.4738 1.0838 7.1250 -0.0000 -0.0000 16.6735 -38.0123 2.9679
